<?xml version="1.0" encoding="UTF-8" standalone="no"?>
<svg
   xmlns:dc="http://purl.org/dc/elements/1.1/"
   xmlns:cc="http://creativecommons.org/ns#"
   xmlns:rdf="http://www.w3.org/1999/02/22-rdf-syntax-ns#"
   xmlns:svg="http://www.w3.org/2000/svg"
   xmlns="http://www.w3.org/2000/svg"
   width="0.99468988in"
   height="0.97668451in"
   id="svg2880"
   version="1.1">
  <defs
     id="defs2882" />
  <metadata
     id="metadata2885">
    <rdf:RDF>
      <cc:Work
         rdf:about="">
        <dc:format>image/svg+xml</dc:format>
        <dc:type
           rdf:resource="http://purl.org/dc/dcmitype/StillImage" />
        <dc:title></dc:title>
      </cc:Work>
    </rdf:RDF>
  </metadata>
  <path
     id="path4639"
     d="M 13.773437,0 C 6.142437,0 0,6.142438 0,13.773438 v 55.066407 c 0,7.631 6.142437,13.77539 13.773437,13.77539 H 47.67773 c -6.13734,7.74297 -17.097652,11.14648 -17.097652,11.14648 0,0 22.505212,-0.0742 34.289062,-11.14648 h 16.8457 c 7.631,0 13.77539,-6.14439 13.77539,-13.77539 V 13.773438 C 95.49023,6.142438 89.34584,0 81.71484,0 Z m 19.78711,11.039063 c 0.14657,-0.0225 0.28082,-0.0234 0.40039,0 0.12754,0.0249 0.238638,0.07669 0.330078,0.158203 1.46297,1.30481 -2.426341,2.5824 -2.113281,9 0.13748,2.81849 -0.704867,5.009766 4.695313,5.009766 3.603523,0 2.113063,-3.208985 6.652343,-3.208985 2.70018,0 3.6944,1.738644 4.07031,3.152344 0.37595,-1.41368 1.37022,-3.152344 4.07031,-3.152344 4.53927,0 3.04883,3.208985 6.65235,3.208985 5.40018,0 4.55783,-2.191276 4.69531,-5.009766 0.31306,-6.4176 -3.57624,-7.69519 -2.11328,-9 1.46298,-1.30481 7.74778,6.340443 7.9043,9.314453 0.16375,3.11126 0.26611,8.027669 -4.36524,10.568359 5.14752,5.08551 5.83789,11.814454 5.83789,11.814454 l -8.92187,-0.15625 c 0,0 -2.03363,-9.235215 -12.83399,-8.765626 -10.80035,0.46958 -12.20898,2.346958 -12.20898,13.773439 0,11.42646 5.00735,15.35545 12.67773,15.6543 12.05257,0.46958 10.95703,-6.26172 10.95703,-6.26172 l -5.63476,0.3125 -3.13086,-8.45118 h 19.25391 c 0,8.61166 -3.40962,21.70757 -18.71875,22.67579 -1.22297,0.0654 -2.47874,0.0703 -3.50977,0.0197 -18.313646,-0.93916 -22.382531,-15.34025 -22.539061,-25.04492 -0.0858,-5.320734 0.780089,-11.31884 5.130859,-15.56641 -4.5831,-2.53844 -4.414063,-7.455516 -4.414063,-10.572266 0,-3.85203 4.977232,-9.135426 7.175782,-9.472656 z"
     style="fill:#ffffff;fill-opacity:1;stroke:none;stroke-width:1.06666672" />
  <g
     transform="translate(-41.451047,-887.92664)"
     id="g4585"
     style="fill:#000000" />
</svg>
